<svg xmlns="http://www.w3.org/2000/svg" viewBox="0 0 393 514.86"><defs><style>.cls-1{fill:#fff;fill-rule:evenodd;}</style></defs><title>Logo-Branco</title><g id="Camada_2" data-name="Camada 2"><g id="Logo"><path class="cls-1" d="M196.78,339.14a142.36,142.36,0,0,1,0-284.71,144.4,144.4,0,0,1,22.64,1.79V1.3A199.07,199.07,0,0,0,196.78,0C88.1,0,0,88.1,0,196.78c0,90.33,69.19,156.55,121.41,222.67l75.37,95.41,75.37-95.41c49.31-62.44,113.74-125,120.77-207.79H338.37A142.38,142.38,0,0,1,196.78,339.14Z"/><path class="cls-1" d="M196.47,99.23a91,91,0,1,0,91,91.08h0V87.1a142.09,142.09,0,0,1,50.92,94.8H393C386.72,98,327.81,28.73,249.17,7.06v109A90.53,90.53,0,0,0,196.47,99.23Z"/></g></g></svg>